<svg xmlns:mydata="http://www.w3.org/2000/svg" mydata:contrastcolor="ffffff" mydata:template="SingleColorHex1" mydata:presentation="2.5" mydata:layouttype="undefined" mydata:specialfontid="undefined" mydata:id1="769" mydata:id2="039" mydata:companyname="Mustafa" mydata:companytagline="" version="1.1" xmlns="http://www.w3.org/2000/svg" xmlns:xlink="http://www.w3.org/1999/xlink" viewBox="0 0 550 470" style="background-color: rgb(232, 248, 250); background-image: radial-gradient(circle closest-side, rgba(255, 255, 255, 0.07) 0%, rgba(255, 255, 255, 0) 100%);"><style style="animation-play-state: running;">#pulse-circle1 {
                transform: scale(0);
                opacity: 0;
                transform-origin: 50% 50%;
                animation: pulse 4s cubic-bezier(.5,.5,0,1) infinite;
            }

            #pulse-circle2 {
                transform: scale(0);
                opacity: 0;
                transform-origin: 50% 50%;
                animation: pulse 4s 0.75s cubic-bezier(.5,.5,0,1) infinite;
            }

            #pulse-circle3 {
                transform: scale(0);
                opacity: 0;
                transform-origin: 50% 50%;
                animation: pulse 4s 1.5s cubic-bezier(.5,.5,0,1) infinite;
            }
            
            @keyframes pulse {                
                12% {
                    opacity: 0.3;
                }
                
                50% {
                    transform: scale(1);
                }
                
                100% {                    
                    transform: scale(1);
                }                
            }</style><g fill="#68d2df" fill-rule="none" stroke="none" stroke-width="1" stroke-linecap="butt" stroke-linejoin="miter" stroke-miterlimit="10" stroke-dasharray="" stroke-dashoffset="0" font-family="none" font-weight="none" font-size="none" text-anchor="none" style="mix-blend-mode: normal; animation-play-state: running;"><g data-paper-data="{&quot;isGlobalGroup&quot;:true,&quot;bounds&quot;:{&quot;x&quot;:64.99999999999997,&quot;y&quot;:179.01851071168514,&quot;width&quot;:420,&quot;height&quot;:111.96297857662981}}" style="animation-play-state: running;"><g data-paper-data="{&quot;isPrimaryText&quot;:true}" fill-rule="nonzero" style="animation-play-state: running;"><path d="M184.87399,267.52951c-15.28773,0 -27.72597,-12.43769 -27.72597,-27.72597v-37.33263c0,-0.0375 -0.03044,-0.06794 -0.06794,-0.06794h-15.31002c-0.02337,0 -0.04511,0.01196 -0.05761,0.03261l-18.98072,30.69503l-18.98072,-30.69558c-0.0125,-0.02011 -0.03424,-0.03261 -0.05761,-0.03261h-15.31002c-0.0375,0 -0.06794,0.03044 -0.06794,0.06794v65.126c0,0.0375 0.03044,0.06794 0.06794,0.06794h13.0165c0.0375,0 0.06794,-0.03044 0.06794,-0.06794v-43.84306l21.2063,34.29183c0.025,0.04022 0.09076,0.04022 0.11576,0l21.20032,-34.28096v43.83219c0,0.0375 0.03044,0.06794 0.06794,0.06794h13.02085c0.00054,0 0.00054,0.00054 0.00109,0.00054h27.7939c0.0375,0 0.06794,-0.03044 0.06794,-0.06794c0,-0.0375 -0.02989,-0.06739 -0.06794,-0.06739zM199.65139,202.40243h-29.54936c-0.0375,0 -0.06794,0.03044 -0.06794,0.06794v37.33427c0,8.18273 6.65934,14.8399 14.84534,14.8399c8.18273,0 14.8399,-6.65717 14.8399,-14.8399v-37.33427c0,-0.0375 -0.03044,-0.06794 -0.06794,-0.06794z" data-paper-data="{&quot;glyphName&quot;:&quot;&quot;,&quot;glyphIndex&quot;:0,&quot;firstGlyphOfWord&quot;:true,&quot;word&quot;:1}" style="animation-play-state: running;"></path><path d="M244.12715,254.50916h-16.53884c-3.55603,0 -6.44847,-2.89298 -6.44847,-6.44847c0,-0.0375 -0.03044,-0.06794 -0.06794,-0.06794h-13.02031c-0.0375,0 -0.06794,0.03044 -0.06794,0.06794c0,10.80995 8.7947,19.60465 19.60465,19.60465h16.53884c10.81049,0 19.60465,-8.7947 19.60465,-19.60465c0,-10.80995 -8.7947,-19.60465 -19.60465,-19.60465h-16.53884c-3.55603,0 -6.44847,-2.89298 -6.44847,-6.44847c0,-3.55549 2.89244,-6.44847 6.44847,-6.44847h16.53884c3.55603,0 6.44847,2.89298 6.44847,6.44847c0,0.0375 0.03044,0.06794 0.06794,0.06794h13.02031c0.0375,0 0.06794,-0.03044 0.06794,-0.06794c0,-10.80995 -8.7947,-19.60465 -19.60465,-19.60465h-16.53884c-10.81049,0 -19.60465,8.7947 -19.60465,19.60465c0,10.80995 8.7947,19.60465 19.60465,19.60465h16.53884c3.55603,0 6.44847,2.89298 6.44847,6.44847c0,3.55549 -2.89244,6.44847 -6.44847,6.44847z" data-paper-data="{&quot;glyphName&quot;:&quot;S&quot;,&quot;glyphIndex&quot;:1,&quot;word&quot;:1}" style="animation-play-state: running;"></path><path d="M269.69792,215.564h21.21337v52.03286c0,0.0375 0.03044,0.06794 0.06794,0.06794h13.0252c0.0375,0 0.06794,-0.03044 0.06794,-0.06794v-52.03286h21.21391c0.0375,0 0.06794,-0.03044 0.06794,-0.06794v-13.0252c0,-0.0375 -0.03044,-0.06794 -0.06794,-0.06794h-55.58835c-0.0375,0 -0.06794,0.03044 -0.06794,0.06794v13.0252c0,0.0375 0.02989,0.06794 0.06794,0.06794z" data-paper-data="{&quot;glyphName&quot;:&quot;T&quot;,&quot;glyphIndex&quot;:2,&quot;word&quot;:1}" style="animation-play-state: running;"></path><path d="M323.03706,245.72459h14.11978c0.02174,0 0.04239,-0.01033 0.05489,-0.02772c0.0125,-0.01739 0.0163,-0.04022 0.00978,-0.06087l-7.05989,-21.94055c-0.01793,-0.05652 -0.11141,-0.05652 -0.12935,0l-7.05989,21.94055c-0.00652,0.02065 -0.00272,0.04348 0.00978,0.06087c0.0125,0.01739 0.03315,0.02772 0.05489,0.02772zM341.34712,258.61609h-22.50034c-0.02989,0 -0.05598,0.01902 -0.06467,0.04728l-2.86961,8.91318c-0.00652,0.02065 -0.00272,0.04348 0.00978,0.06087c0.01304,0.01739 0.03315,0.02772 0.05489,0.02772h28.23956c0.02174,0 0.04239,-0.01033 0.05489,-0.02772c0.0125,-0.01739 0.0163,-0.04022 0.00978,-0.06087l-2.86961,-8.91318c-0.00924,-0.02826 -0.03478,-0.04728 -0.06468,-0.04728zM413.48192,202.40328h-76.54573c-0.02174,0 -0.04239,0.01033 -0.05489,0.02772c-0.0125,0.01739 -0.0163,0.04022 -0.00978,0.06087l20.95684,65.126c0.00109,0.00326 0.00652,0.00272 0.00761,0.00543c0.01087,0.02283 0.02989,0.04131 0.05707,0.04185h13.0252c0.0375,0 0.06794,-0.03044 0.06794,-0.06794v-25.98246h29.47545c0.0375,0 0.06794,-0.03044 0.06794,-0.06794v-13.0252c0,-0.0375 -0.03044,-0.06794 -0.06794,-0.06794h-29.47545v-12.88933h42.49521c0.0375,0 0.06794,-0.03044 0.06794,-0.06794v-13.0252c0.00054,-0.0375 -0.02989,-0.06794 -0.06739,-0.06794z" data-paper-data="{&quot;glyphName&quot;:&quot;&quot;,&quot;glyphIndex&quot;:3,&quot;word&quot;:1}" style="animation-play-state: running;"></path><path d="M406.02919,267.66643h13.67412c0.02989,0 0.05598,-0.01902 0.06467,-0.04728l2.8533,-8.86753h22.40306l2.8533,8.86753c0.00924,0.02826 0.03478,0.04728 0.06468,0.04728h13.67412c0.02174,0 0.04185,-0.01033 0.05489,-0.02772c0.01304,-0.01739 0.0163,-0.04022 0.01033,-0.06087l-20.9563,-65.126c-0.00924,-0.02826 -0.03478,-0.04728 -0.06468,-0.04728h-13.67412c-0.02989,0 -0.05598,0.01902 -0.06467,0.04728l-20.95738,65.126c-0.00652,0.02065 -0.00326,0.04348 0.00978,0.06087c0.01304,0.01739 0.03315,0.02772 0.05489,0.02772zM426.85723,245.58837l6.96587,-21.6487l6.96587,21.6487z" data-paper-data="{&quot;glyphName&quot;:&quot;A&quot;,&quot;glyphIndex&quot;:4,&quot;lastGlyphOfWord&quot;:true,&quot;word&quot;:1}" style="animation-play-state: running;"></path></g><g data-paper-data="{&quot;isContainerElementsWrapper&quot;:true}" fill-rule="evenodd" style="animation-play-state: running;"><path d="M65,282.77418c0,2.266 0.80127,4.20053 2.4038,5.8036c1.60271,1.60247 3.53724,2.40371 5.8036,2.40371h403.58529c2.26659,0 4.20113,-0.80124 5.8036,-2.40371c1.60247,-1.60247 2.40371,-3.53701 2.40371,-5.8036v-95.54836c0,-2.26659 -0.80124,-4.20113 -2.40371,-5.8036c-1.60307,-1.60247 -3.5376,-2.40371 -5.8036,-2.40371h-403.58529c-2.26647,0 -4.20101,0.80124 -5.8036,2.40371c-1.60253,1.60307 -2.4038,3.5376 -2.4038,5.8036zM73.2074,284.40348c-0.44986,0 -0.83388,-0.15917 -1.15205,-0.47752c-0.31811,-0.31775 -0.47717,-0.70168 -0.47717,-1.15178v-95.54836c0,-0.4501 0.15908,-0.83403 0.47725,-1.15178c0.31811,-0.31835 0.7021,-0.47752 1.15196,-0.47752h403.58529c0.4495,0 0.83343,0.15917 1.15178,0.47752c0.31835,0.31835 0.47752,0.70227 0.47752,1.15178v95.54836c0,0.4495 -0.15917,0.83343 -0.47752,1.15178c-0.31835,0.31835 -0.70227,0.47752 -1.15178,0.47752z" data-paper-data="{&quot;isBaseLogoContainer&quot;:true}" style="animation-play-state: running;"></path></g></g></g><circle id="pulse-circle1" cx="50%" cy="50%" r="45%" stroke="#68d2df" stroke-width="5" fill="none" style="animation-play-state: running;"></circle><circle id="pulse-circle2" cx="50%" cy="50%" r="45%" stroke="#68d2df" stroke-width="5" fill="none" style="animation-play-state: running;"></circle><circle id="pulse-circle3" cx="50%" cy="50%" r="45%" stroke="#68d2df" stroke-width="5" fill="none" style="animation-play-state: running;"></circle></svg>